<svg width="279" height="187" viewBox="0 0 279 187" fill="none" xmlns="http://www.w3.org/2000/svg">
<path d="M141.784 65.8932C145.769 67.5854 199.27 59.0766 202.224 38.6271C205.178 18.1775 199.27 12.7243 199.27 12.7243C199.27 12.7243 212.903 24.3124 211.767 39.7632C210.631 55.214 197.907 68.1654 173.594 71.8008C149.282 75.4363 139.285 74.7547 139.285 74.7547C142.791 69.1242 137.799 64.201 141.784 65.8932Z" fill="white"/>
<path d="M142.011 121.612C145.996 119.92 199.497 128.429 202.451 148.878C205.405 169.328 199.497 174.781 199.497 174.781C199.497 174.781 213.13 163.193 211.994 147.742C210.858 132.291 198.134 119.34 173.821 115.704C149.509 112.069 139.511 112.751 139.511 112.751C143.018 118.381 138.026 123.304 142.011 121.612Z" fill="white"/>
<path d="M166.323 79.0716C155.871 80.2077 139.057 81.571 139.057 81.571V91.1141L187.454 89.5236C187.388 88.8307 208.454 88.2147 226.308 79.0716C244.163 69.9286 246.181 53.3133 247.212 44.0802C248.244 34.8471 238.65 12.8285 236.988 12.9514C230.056 4.88579 223.545 1.56649 221.754 0.448258C225.451 4.30286 233.899 16.2103 234.034 37.0364C234.174 58.7484 203.481 74.1225 199.951 74.0728C199.951 74.0728 176.775 77.9355 166.323 79.0716Z" fill="white"/>
<path d="M166.323 107.928C155.871 106.792 139.057 105.429 139.057 105.429V95.8859L187.454 97.4764C187.388 98.1693 208.454 98.7853 226.308 107.928C244.163 117.071 246.181 133.687 247.212 142.92C248.244 152.153 238.65 174.171 236.988 174.049C230.056 182.114 223.545 185.434 221.754 186.552C225.451 182.697 233.899 170.79 234.034 149.964C234.174 128.252 203.481 112.877 199.951 112.927C199.951 112.927 176.775 109.064 166.323 107.928Z" fill="white"/>
<path d="M224.036 89.9781C224.036 89.9781 255.392 80.435 261.527 61.1215C267.662 41.808 264.254 26.5845 264.254 26.5845C264.254 26.5845 279.023 36.3548 278.569 57.2588C278.114 78.1628 258.119 84.0705 258.119 84.0705C235.356 89.386 235.905 88.1302 224.036 89.9781Z" fill="white"/>
<path d="M224.036 97.7035C224.036 97.7035 255.392 107.247 261.527 126.56C267.662 145.874 264.254 161.097 264.254 161.097C264.254 161.097 279.023 151.327 278.569 130.423C278.114 109.519 258.119 103.611 258.119 103.611C235.356 98.2957 235.905 99.5515 224.036 97.7035Z" fill="white"/>
<path d="M146.328 128.151C146.17 130.346 145.74 131.972 144.51 135.422C146.112 139.011 147.226 141.037 150.645 144.738C153.469 144.524 154.939 143.657 157.235 139.966C159.548 136.417 160.266 134.29 160.643 130.423C155.813 128.307 152.62 127.907 146.328 128.151Z" fill="white"/>
<path d="M146.782 59.3038C146.624 57.1085 146.194 55.4824 144.965 52.0328C146.566 48.4434 147.68 46.4179 151.099 42.7169C153.923 42.9304 155.393 43.7972 157.689 47.4885C160.002 51.0376 160.721 53.1648 161.097 57.0316C156.268 59.1478 153.074 59.5479 146.782 59.3038Z" fill="white"/>
<path d="M129.968 149.736C135.521 149.112 140.329 149.271 149.509 149.736C140.613 142.355 136.339 133.955 132.922 93.8408C135.076 54.3669 139.472 45.2449 149.509 37.9454C139.825 37.7652 131.99 37.8325 131.104 37.0365C119.006 43.6023 114.804 55.642 112.472 93.8408C114.42 128.023 117.589 141.936 129.968 149.736Z" fill="white"/>
<path d="M109.292 117.472C109.359 114.198 109.098 112.695 108.156 110.655L12.4971 107.701L109.292 117.472Z" fill="white"/>
<path d="M109.292 117.472C109.359 114.198 109.098 112.695 108.156 110.655L12.4971 107.701L109.292 117.472Z" fill="white"/>
<path d="M109.292 117.472C109.359 114.198 109.098 112.695 108.156 110.655L12.4971 107.701L109.292 117.472Z" fill="white"/>
<path d="M109.292 117.472C109.359 114.198 109.098 112.695 108.156 110.655L12.4971 107.701L109.292 117.472Z" fill="white"/>
<path d="M109.519 69.5286C109.586 72.8018 109.325 74.3054 108.383 76.3451L12.7244 79.299L109.519 69.5286Z" fill="white"/>
<path d="M109.519 69.5286C109.586 72.8018 109.325 74.3054 108.383 76.3451L12.7244 79.299L109.519 69.5286Z" fill="white"/>
<path d="M109.519 69.5286C109.586 72.8018 109.325 74.3054 108.383 76.3451L12.7244 79.299L109.519 69.5286Z" fill="white"/>
<path d="M109.519 69.5286C109.586 72.8018 109.325 74.3054 108.383 76.3451L12.7244 79.299L109.519 69.5286Z" fill="white"/>
<path d="M107.474 83.6161C107.96 86.5021 107.984 88.0964 107.474 90.887L0 88.8421L107.474 83.6161Z" fill="white"/>
<path d="M107.474 103.157C107.96 100.271 107.984 98.6765 107.474 95.8858L0 97.9307L107.474 103.157Z" fill="white"/>
</svg>
