<svg width="145" height="97" viewBox="0 0 145 97" fill="none" xmlns="http://www.w3.org/2000/svg">
<path d="M73.5456 34.1799C75.6126 35.0577 103.365 30.644 104.897 20.0365C106.429 9.42898 103.365 6.6003 103.365 6.6003C103.365 6.6003 110.436 12.6112 109.847 20.6258C109.258 28.6404 102.657 35.3585 90.0462 37.2443C77.4351 39.1301 72.2491 38.7765 72.2491 38.7765C74.0678 35.8558 71.4786 33.3021 73.5456 34.1799Z" fill="white"/>
<path d="M73.6634 63.0822C75.7304 62.2044 103.482 66.6181 105.014 77.2256C106.547 87.8331 103.482 90.6618 103.482 90.6618C103.482 90.6618 110.554 84.6509 109.965 76.6363C109.375 68.6217 102.775 61.9036 90.164 60.0178C77.5528 58.132 72.3669 58.4856 72.3669 58.4856C74.1856 61.4062 71.5963 63.96 73.6634 63.0822Z" fill="white"/>
<path d="M86.2745 41.0158C80.8529 41.6051 72.1312 42.3122 72.1312 42.3122V47.2624L97.2356 46.4374C97.2012 46.0779 108.129 45.7584 117.39 41.0158C126.651 36.2731 127.698 27.6545 128.233 22.8651C128.768 18.0758 123.792 6.65437 122.929 6.7181C119.334 2.53434 115.956 0.812562 115.028 0.232519C116.945 2.23196 121.327 8.40857 121.397 19.2114C121.47 30.4738 105.549 38.4486 103.718 38.4228C103.718 38.4228 91.6962 40.4265 86.2745 41.0158Z" fill="white"/>
<path d="M86.2745 55.9842C80.8529 55.3949 72.1312 54.6878 72.1312 54.6878V49.7376L97.2356 50.5626C97.2012 50.9221 108.129 51.2416 117.39 55.9842C126.651 60.7269 127.698 69.3455 128.233 74.1349C128.768 78.9242 123.792 90.3456 122.929 90.2819C119.334 94.4657 115.956 96.1874 115.028 96.7675C116.945 94.768 121.327 88.5914 121.397 77.7886C121.47 66.5262 105.549 58.5514 103.718 58.5772C103.718 58.5772 91.6962 56.5735 86.2745 55.9842Z" fill="white"/>
<path d="M116.211 46.6732C116.211 46.6732 132.476 41.723 135.658 31.7048C138.841 21.6865 137.073 13.7898 137.073 13.7898C137.073 13.7898 144.734 18.8579 144.498 29.7011C144.262 40.5444 133.891 43.6088 133.891 43.6088C122.083 46.366 122.368 45.7146 116.211 46.6732Z" fill="white"/>
<path d="M116.211 50.6805C116.211 50.6805 132.476 55.6306 135.658 65.6489C138.841 75.6671 137.073 83.5638 137.073 83.5638C137.073 83.5638 144.734 78.4958 144.498 67.6525C144.262 56.8093 133.891 53.7449 133.891 53.7449C122.083 50.9876 122.368 51.639 116.211 50.6805Z" fill="white"/>
<path d="M75.9027 66.4739C75.8205 67.6127 75.5978 68.4562 74.9598 70.2455C75.7907 72.1074 76.3686 73.158 78.1421 75.0778C79.6069 74.9671 80.369 74.5175 81.5601 72.6027C82.7598 70.7617 83.1327 69.6583 83.328 67.6525C80.8229 66.5548 79.1664 66.3473 75.9027 66.4739Z" fill="white"/>
<path d="M76.1384 30.7619C76.0562 29.6231 75.8335 28.7796 75.1956 26.9903C76.0264 25.1284 76.6043 24.0778 78.3778 22.158C79.8426 22.2687 80.6047 22.7183 81.7958 24.6331C82.9955 26.4741 83.3684 27.5775 83.5637 29.5833C81.0586 30.681 79.4021 30.8885 76.1384 30.7619Z" fill="white"/>
<path d="M67.4168 77.6707C70.2973 77.3467 72.7913 77.4294 77.5528 77.6707C72.9384 73.842 70.7213 69.485 68.949 48.6768C70.0664 28.201 72.3464 23.4693 77.5528 19.6829C72.5296 19.5895 68.4656 19.6244 68.0061 19.2115C61.7307 22.6172 59.5507 28.8624 58.3414 48.6768C59.3518 66.4078 60.9955 73.6247 67.4168 77.6707Z" fill="white"/>
<path d="M56.6913 60.9344C56.7262 59.2366 56.5908 58.4566 56.102 57.3986L6.48236 55.8664L56.6913 60.9344Z" fill="white"/>
<path d="M56.6913 60.9344C56.7262 59.2366 56.5908 58.4566 56.102 57.3986L6.48236 55.8664L56.6913 60.9344Z" fill="white"/>
<path d="M56.6913 60.9344C56.7262 59.2366 56.5908 58.4566 56.102 57.3986L6.48236 55.8664L56.6913 60.9344Z" fill="white"/>
<path d="M56.6913 60.9344C56.7262 59.2366 56.5908 58.4566 56.102 57.3986L6.48236 55.8664L56.6913 60.9344Z" fill="white"/>
<path d="M56.8092 36.0656C56.8441 37.7635 56.7087 38.5434 56.2199 39.6015L6.60022 41.1337L56.8092 36.0656Z" fill="white"/>
<path d="M56.8092 36.0656C56.8441 37.7635 56.7087 38.5434 56.2199 39.6015L6.60022 41.1337L56.8092 36.0656Z" fill="white"/>
<path d="M56.8092 36.0656C56.8441 37.7635 56.7087 38.5434 56.2199 39.6015L6.60022 41.1337L56.8092 36.0656Z" fill="white"/>
<path d="M56.8092 36.0656C56.8441 37.7635 56.7087 38.5434 56.2199 39.6015L6.60022 41.1337L56.8092 36.0656Z" fill="white"/>
<path d="M55.7484 43.3731C56.0007 44.8701 56.0132 45.6971 55.7484 47.1446L0 46.0839L55.7484 43.3731Z" fill="white"/>
<path d="M55.7484 53.5091C56.0007 52.0121 56.0132 51.1851 55.7484 49.7376L0 50.7983L55.7484 53.5091Z" fill="white"/>
</svg>
