<svg width="40" height="40" viewBox="0 0 40 40" fill="none" xmlns="http://www.w3.org/2000/svg">
<path d="M20 2H34C35.0609 2 36.0783 2.42143 36.8284 3.17157C37.5786 3.92172 38 4.93913 38 6V34C38 35.0609 37.5786 36.0783 36.8284 36.8284C36.0783 37.5786 35.0609 38 34 38H20M20 2H6C4.93913 2 3.92172 2.42143 3.17157 3.17157C2.42143 3.92172 2 4.93913 2 6V34C2 35.0609 2.42143 36.0783 3.17157 36.8284C3.92172 37.5786 4.93913 38 6 38H20M20 2V38" stroke="white" stroke-width="4" stroke-linecap="round" stroke-linejoin="round"/>
</svg>
