<svg width="76" height="67" viewBox="0 0 76 67" fill="none" xmlns="http://www.w3.org/2000/svg">
<path d="M57.2295 26.5208H48.8545V23.7292H57.2295V15.3542H60.0212V23.7292H68.3962V26.5208H60.0212V34.8958H57.2295V26.5208Z" fill="white"/>
<path d="M33.5003 33.5C30.4295 33.5 27.8007 32.4066 25.6139 30.2198C23.4271 28.033 22.3337 25.4042 22.3337 22.3333C22.3337 19.2625 23.4271 16.6337 25.6139 14.4469C27.8007 12.2601 30.4295 11.1667 33.5003 11.1667C36.5712 11.1667 39.2 12.2601 41.3868 14.4469C43.5736 16.6337 44.667 19.2625 44.667 22.3333C44.667 25.4042 43.5736 28.033 41.3868 30.2198C39.2 32.4066 36.5712 33.5 33.5003 33.5ZM11.167 55.8333V48.0167C11.167 46.4347 11.5741 44.9807 12.3883 43.6547C13.2026 42.3286 14.2844 41.3167 15.6337 40.6187C18.5184 39.1764 21.4496 38.0946 24.4274 37.3734C27.4052 36.6522 30.4295 36.2917 33.5003 36.2917C36.5712 36.2917 39.5955 36.6522 42.5732 37.3734C45.551 38.0946 48.4823 39.1764 51.367 40.6187C52.7163 41.3167 53.7981 42.3286 54.6123 43.6547C55.4265 44.9807 55.8337 46.4347 55.8337 48.0167V55.8333H11.167ZM16.7503 50.25H50.2503V48.0167C50.2503 47.5048 50.1224 47.0396 49.8665 46.6208C49.6106 46.2021 49.2732 45.8764 48.8545 45.6437C46.342 44.3875 43.8062 43.4453 41.2472 42.8172C38.6882 42.1891 36.1059 41.875 33.5003 41.875C30.8948 41.875 28.3125 42.1891 25.7534 42.8172C23.1944 43.4453 20.6587 44.3875 18.1462 45.6437C17.7274 45.8764 17.3901 46.2021 17.1342 46.6208C16.8783 47.0396 16.7503 47.5048 16.7503 48.0167V50.25ZM33.5003 27.9167C35.0357 27.9167 36.3502 27.37 37.4436 26.2766C38.537 25.1831 39.0837 23.8687 39.0837 22.3333C39.0837 20.7979 38.537 19.4835 37.4436 18.3901C36.3502 17.2967 35.0357 16.75 33.5003 16.75C31.9649 16.75 30.6505 17.2967 29.5571 18.3901C28.4637 19.4835 27.917 20.7979 27.917 22.3333C27.917 23.8687 28.4637 25.1831 29.5571 26.2766C30.6505 27.37 31.9649 27.9167 33.5003 27.9167Z" fill="white"/>
</svg>
