<svg width="145" height="97" viewBox="0 0 145 97" fill="none" xmlns="http://www.w3.org/2000/svg">
<path d="M73.5455 34.1799C75.6125 35.0577 103.364 30.644 104.897 20.0365C106.429 9.42898 103.364 6.6003 103.364 6.6003C103.364 6.6003 110.436 12.6112 109.847 20.6258C109.258 28.6404 102.657 35.3585 90.0461 37.2443C77.4349 39.1301 72.249 38.7765 72.249 38.7765C74.0677 35.8558 71.4785 33.3021 73.5455 34.1799Z" fill="white"/>
<path d="M73.6637 63.0822C75.7307 62.2044 103.483 66.6181 105.015 77.2256C106.547 87.8331 103.483 90.6618 103.483 90.6618C103.483 90.6618 110.554 84.6509 109.965 76.6363C109.376 68.6217 102.775 61.9036 90.1643 60.0178C77.5531 58.132 72.3672 58.4856 72.3672 58.4856C74.1859 61.4062 71.5966 63.96 73.6637 63.0822Z" fill="white"/>
<path d="M86.2742 41.0158C80.8526 41.6051 72.1309 42.3122 72.1309 42.3122V47.2624L97.2353 46.4374C97.2009 46.0779 108.128 45.7584 117.39 41.0158C126.651 36.2731 127.698 27.6545 128.233 22.8651C128.768 18.0758 123.791 6.65437 122.929 6.7181C119.334 2.53434 115.956 0.812562 115.027 0.232519C116.945 2.23196 121.327 8.40857 121.397 19.2114C121.47 30.4738 105.549 38.4486 103.718 38.4228C103.718 38.4228 91.6959 40.4265 86.2742 41.0158Z" fill="white"/>
<path d="M86.2742 55.9842C80.8526 55.3949 72.1309 54.6878 72.1309 54.6878V49.7376L97.2353 50.5626C97.2009 50.9221 108.128 51.2416 117.39 55.9842C126.651 60.7269 127.698 69.3455 128.233 74.1349C128.768 78.9242 123.791 90.3456 122.929 90.2819C119.334 94.4657 115.956 96.1874 115.027 96.7675C116.945 94.768 121.327 88.5914 121.397 77.7886C121.47 66.5262 105.549 58.5514 103.718 58.5772C103.718 58.5772 91.6959 56.5735 86.2742 55.9842Z" fill="white"/>
<path d="M116.211 46.6732C116.211 46.6732 132.476 41.723 135.658 31.7048C138.84 21.6865 137.072 13.7898 137.072 13.7898C137.072 13.7898 144.733 18.8579 144.498 29.7011C144.262 40.5444 133.89 43.6088 133.89 43.6088C122.083 46.366 122.367 45.7146 116.211 46.6732Z" fill="white"/>
<path d="M116.211 50.6805C116.211 50.6805 132.476 55.6306 135.658 65.6489C138.84 75.6671 137.072 83.5638 137.072 83.5638C137.072 83.5638 144.733 78.4958 144.498 67.6525C144.262 56.8093 133.89 53.7449 133.89 53.7449C122.083 50.9876 122.367 51.639 116.211 50.6805Z" fill="white"/>
<path d="M75.9029 66.4739C75.8206 67.6127 75.5979 68.4562 74.96 70.2455C75.7908 72.1074 76.3687 73.158 78.1422 75.0778C79.607 74.9671 80.3691 74.5175 81.5602 72.6027C82.7599 70.7617 83.1328 69.6583 83.3281 67.6525C80.823 66.5548 79.1665 66.3473 75.9029 66.4739Z" fill="white"/>
<path d="M76.1382 30.7619C76.0559 29.6231 75.8333 28.7796 75.1953 26.9903C76.0261 25.1284 76.604 24.0778 78.3776 22.158C79.8424 22.2687 80.6045 22.7183 81.7956 24.6331C82.9953 26.4741 83.3682 27.5775 83.5635 29.5833C81.0583 30.681 79.4019 30.8885 76.1382 30.7619Z" fill="white"/>
<path d="M67.4171 77.6707C70.2977 77.3467 72.7917 77.4294 77.5532 77.6707C72.9388 73.842 70.7216 69.485 68.9493 48.6768C70.0668 28.201 72.3467 23.4693 77.5532 19.6829C72.5299 19.5895 68.4659 19.6244 68.0064 19.2115C61.731 22.6172 59.5511 28.8624 58.3418 48.6768C59.3521 66.4078 60.9958 73.6247 67.4171 77.6707Z" fill="white"/>
<path d="M56.6914 60.9344C56.7263 59.2366 56.5909 58.4566 56.1021 57.3986L6.48242 55.8664L56.6914 60.9344Z" fill="white"/>
<path d="M56.6914 60.9344C56.7263 59.2366 56.5909 58.4566 56.1021 57.3986L6.48242 55.8664L56.6914 60.9344Z" fill="white"/>
<path d="M56.6914 60.9344C56.7263 59.2366 56.5909 58.4566 56.1021 57.3986L6.48242 55.8664L56.6914 60.9344Z" fill="white"/>
<path d="M56.6914 60.9344C56.7263 59.2366 56.5909 58.4566 56.1021 57.3986L6.48242 55.8664L56.6914 60.9344Z" fill="white"/>
<path d="M56.8095 36.0656C56.8444 37.7635 56.7091 38.5434 56.2202 39.6015L6.60059 41.1337L56.8095 36.0656Z" fill="white"/>
<path d="M56.8095 36.0656C56.8444 37.7635 56.7091 38.5434 56.2202 39.6015L6.60059 41.1337L56.8095 36.0656Z" fill="white"/>
<path d="M56.8095 36.0656C56.8444 37.7635 56.7091 38.5434 56.2202 39.6015L6.60059 41.1337L56.8095 36.0656Z" fill="white"/>
<path d="M56.8095 36.0656C56.8444 37.7635 56.7091 38.5434 56.2202 39.6015L6.60059 41.1337L56.8095 36.0656Z" fill="white"/>
<path d="M55.7484 43.3731C56.0007 44.8701 56.0132 45.6971 55.7484 47.1446L0 46.0839L55.7484 43.3731Z" fill="white"/>
<path d="M55.7484 53.5091C56.0007 52.0121 56.0132 51.1851 55.7484 49.7376L0 50.7983L55.7484 53.5091Z" fill="white"/>
</svg>
